<svg width="239" height="157" viewBox="0 0 239 157" fill="none" xmlns="http://www.w3.org/2000/svg">
<path d="M40 3H3V107H40" stroke="white" stroke-width="5"/>
<g clip-path="url(#clip0_12:53)">
<path d="M199 6H236V110H199" stroke="white" stroke-width="5"/>
</g>
<path d="M79.4184 22.54H72.5588V86.422H79.4184V22.54Z" fill="white"/>
<path d="M62.0457 22.54H58.6165V86.422H62.0457V22.54Z" fill="white"/>
<path d="M100.331 22.54H96.9006V86.422H100.331V22.54Z" fill="white"/>
<path d="M93.3602 22.54H89.9294V86.422H93.3602V22.54Z" fill="white"/>
<path d="M34.2735 22.54H30.7327V86.422H34.2735V22.54Z" fill="white"/>
<path d="M44.673 22.54H41.2427V86.422H44.673V22.54Z" fill="white"/>
<path d="M27.3013 22.5404H20.3301V86.468H27.3013V22.5404Z" fill="white"/>
<path d="M107.304 22.54H103.873V86.422H107.304V22.54Z" fill="white"/>
<path d="M180.334 22.54H173.363V86.422H180.334V22.54Z" fill="white"/>
<path d="M201.248 22.54H190.847V86.422H201.248V22.54Z" fill="white"/>
<path d="M208.219 22.54H204.678V86.422H208.219V22.54Z" fill="white"/>
<path d="M218.62 22.54H211.65V86.4677H218.62V22.54Z" fill="white"/>
<path d="M155.991 22.54H149.02V86.422H155.991V22.54Z" fill="white"/>
<path d="M169.933 22.54H162.962V86.422H169.933V22.54Z" fill="white"/>
<path d="M142.049 22.54H135.078V86.422H142.049V22.54Z" fill="white"/>
<path d="M124.676 22.54H117.704V86.422H124.676V22.54Z" fill="white"/>
<path d="M24 53H215" stroke="#FF0000" stroke-width="4"/>
<defs>
<clipPath id="clip0_12:53">
<rect width="40" height="110" fill="white" transform="translate(199 3)"/>
</clipPath>
</defs>
</svg>
