<svg width="428" height="927" viewBox="0 0 428 927" fill="none" xmlns="http://www.w3.org/2000/svg">
<g clip-path="url(#clip0_65:699)">
<rect width="428" height="927" fill="url(#paint0_linear_65:699)"/>
<path d="M97 -0.598667C117.4 79.8013 -48.1667 110.235 -133.5 115.401L-145 88.9013L-57 -23.5987C-14.1667 -49.432 76.6 -80.9987 97 -0.598667Z" fill="black" fill-opacity="0.05"/>
<path d="M164.494 553.777C81.5535 552.673 95.009 384.871 112.104 301.108L140.678 296.859L226.568 410.977C240.435 459.037 247.434 554.881 164.494 553.777Z" fill="black" fill-opacity="0.05"/>
<path d="M295.937 34L448.937 28L467.437 34C480.603 79.6667 500.637 174 475.437 186C450.237 198 356.603 199.667 312.937 199C302.937 199 284.937 211.667 288.437 182C292.937 161.833 294.837 113.5 266.437 81.5C238.037 49.5 274.27 36.5 295.937 34Z" fill="black" fill-opacity="0.05"/>
<path d="M182 169.401C202.4 249.801 36.8333 280.235 -48.5 285.401L-60 258.901L28 146.401C70.8333 120.568 161.6 89.0013 182 169.401Z" fill="black" fill-opacity="0.05"/>
<path d="M234.666 910.419C223.713 828.198 391.69 817.142 477.047 821.891L485.401 849.544L384.966 951.097C339.43 971.797 245.618 992.641 234.666 910.419Z" fill="black" fill-opacity="0.05"/>
<path d="M-20.0633 627L132.937 621L151.437 627C164.603 672.667 184.637 767 159.437 779C134.237 791 40.6034 792.667 -3.06326 792C-13.0633 792 -31.0633 804.667 -27.5633 775C-23.0633 754.833 -21.1633 706.5 -49.5633 674.5C-77.9633 642.5 -41.7299 629.5 -20.0633 627Z" fill="black" fill-opacity="0.05"/>
<path d="M380.937 296L533.937 290L552.437 296C565.603 341.667 585.637 436 560.437 448C535.237 460 441.603 461.667 397.937 461C387.937 461 369.937 473.667 373.437 444C377.937 423.833 379.837 375.5 351.437 343.5C323.037 311.5 359.27 298.5 380.937 296Z" fill="black" fill-opacity="0.05"/>
</g>
<defs>
<linearGradient id="paint0_linear_65:699" x1="-31" y1="236.553" x2="492.395" y2="306.493" gradientUnits="userSpaceOnUse">
<stop stop-color="#3EB8AF"/>
<stop offset="1" stop-color="#55D1A0"/>
</linearGradient>
<clipPath id="clip0_65:699">
<rect width="428" height="927" fill="white"/>
</clipPath>
</defs>
</svg>
