<svg width="428" height="115" viewBox="0 0 428 115" fill="none" xmlns="http://www.w3.org/2000/svg">
<g clip-path="url(#clip0_62:394)">
<rect width="428" height="115" fill="url(#paint0_linear_62:394)"/>
<path d="M97 -0.598667C117.4 79.8013 -48.1667 110.235 -133.5 115.401L-145 88.9013L-57 -23.5987C-14.1667 -49.432 76.6 -80.9987 97 -0.598667Z" fill="black" fill-opacity="0.05"/>
<path d="M295.937 86L448.937 80L467.437 86C480.603 131.667 500.637 226 475.437 238C450.237 250 356.603 251.667 312.937 251C302.937 251 284.937 263.667 288.437 234C292.937 213.833 294.837 165.5 266.437 133.5C238.037 101.5 274.27 88.5 295.937 86Z" fill="black" fill-opacity="0.05"/>
</g>
<defs>
<linearGradient id="paint0_linear_62:394" x1="-31" y1="29.3459" x2="215.612" y2="294.983" gradientUnits="userSpaceOnUse">
<stop stop-color="#3EB8AF"/>
<stop offset="1" stop-color="#55D1A0"/>
</linearGradient>
<clipPath id="clip0_62:394">
<rect width="428" height="115" fill="white"/>
</clipPath>
</defs>
</svg>
